# Blender v2.64 (sub 0) OBJ File: 'circle.blend'
# www.blender.org
o Circle_Circle.001
v -4.139763 0.000000 -47.317692
v -12.293503 0.000000 -45.879967
v -20.073708 0.000000 -43.048203
v -27.243986 0.000000 -38.908440
v -33.586472 0.000000 -33.586468
v -38.908443 0.000000 -27.243982
v -43.048206 0.000000 -20.073704
v -45.879967 0.000000 -12.293499
v -47.317688 0.000000 -4.139762
v -47.317692 0.000000 4.139760
v -45.879971 0.000000 12.293497
v -43.048206 0.000000 20.073702
v -38.908447 0.000000 27.243979
v -33.586472 0.000000 33.586460
v -27.243994 0.000000 38.908436
v -20.073719 0.000000 43.048199
v -12.293514 0.000000 45.879963
v -4.139777 0.000000 47.317692
v 4.139744 0.000000 47.317692
v 12.293482 0.000000 45.879974
v 20.073689 0.000000 43.048210
v 27.243967 0.000000 38.908451
v 33.586452 0.000000 33.586483
v 38.908436 0.000000 27.243998
v 43.048195 0.000000 20.073721
v 45.879963 0.000000 12.293516
v 47.317692 0.000000 4.139781
v 47.317696 0.000000 -4.139741
v 45.879974 0.000000 -12.293479
v 43.048210 0.000000 -20.073685
v 38.908459 0.000000 -27.243961
v 33.586487 0.000000 -33.586449
v 27.244009 0.000000 -38.908428
v 20.073736 0.000000 -43.048195
v 12.293532 0.000000 -45.879959
v 4.139795 0.000000 -47.317688
v -4.357789 0.000000 -49.809734
v -12.940954 0.000000 -48.296288
v -21.130917 0.000000 -45.315388
v -28.678822 0.000000 -40.957600
v -35.355343 0.000000 -35.355339
v -40.957607 0.000000 -28.678818
v -45.315392 0.000000 -21.130907
v -48.296291 0.000000 -12.940952
v -49.809731 0.000000 -4.357789
v -49.809734 0.000000 4.357785
v -48.296295 0.000000 12.940948
v -45.315392 0.000000 21.130907
v -40.957607 0.000000 28.678816
v -35.355343 0.000000 35.355335
v -28.678831 0.000000 40.957592
v -21.130924 0.000000 45.315384
v -12.940967 0.000000 48.296288
v -4.357803 0.000000 49.809734
v 4.357769 0.000000 49.809734
v 12.940933 0.000000 48.296295
v 21.130894 0.000000 45.315399
v 28.678804 0.000000 40.957611
v 35.355324 0.000000 35.355354
v 40.957596 0.000000 28.678835
v 45.315380 0.000000 21.130926
v 48.296288 0.000000 12.940969
v 49.809734 0.000000 4.357807
v 49.809738 0.000000 -4.357766
v 48.296295 0.000000 -12.940929
v 45.315399 0.000000 -21.130890
v 40.957619 0.000000 -28.678799
v 35.355358 0.000000 -35.355320
v 28.678848 0.000000 -40.957584
v 21.130943 0.000000 -45.315376
v 12.940987 0.000000 -48.296284
v 4.357822 0.000000 -49.809731
vt 0.031921 0.575791
vt 0.031921 0.924209
vt 0.968079 0.924209
vt 0.968079 0.575791
vt 0.031921 0.075791
vt 0.031921 0.424210
vt 0.968079 0.424210
vt 0.968079 0.075791
vn 0.000000 1.000000 0.000000
s off
f 71/1/1 35/2/1 34/3/1
f 71/1/1 34/3/1 70/4/1
f 53/1/1 17/2/1 16/3/1
f 53/1/1 16/3/1 52/4/1
f 58/5/1 22/6/1 21/7/1
f 58/5/1 21/7/1 57/8/1
f 40/5/1 4/6/1 3/7/1
f 40/5/1 3/7/1 39/8/1
f 63/1/1 27/2/1 26/3/1
f 63/1/1 26/3/1 62/4/1
f 45/1/1 9/2/1 8/3/1
f 45/1/1 8/3/1 44/4/1
f 68/1/1 32/2/1 31/3/1
f 68/1/1 31/3/1 67/4/1
f 50/1/1 14/2/1 13/3/1
f 50/1/1 13/3/1 49/4/1
f 1/3/1 36/2/1 72/1/1
f 1/3/1 72/1/1 37/4/1
f 55/1/1 19/2/1 18/3/1
f 55/1/1 18/3/1 54/4/1
f 60/1/1 24/2/1 23/3/1
f 60/1/1 23/3/1 59/4/1
f 42/1/1 6/2/1 5/3/1
f 42/1/1 5/3/1 41/4/1
f 65/1/1 29/2/1 28/3/1
f 65/1/1 28/3/1 64/4/1
f 47/1/1 11/2/1 10/3/1
f 47/1/1 10/3/1 46/4/1
f 70/5/1 34/6/1 33/7/1
f 70/5/1 33/7/1 69/8/1
f 52/5/1 16/6/1 15/7/1
f 52/5/1 15/7/1 51/8/1
f 57/1/1 21/2/1 20/3/1
f 57/1/1 20/3/1 56/4/1
f 39/1/1 3/2/1 2/3/1
f 39/1/1 2/3/1 38/4/1
f 62/1/1 26/2/1 25/3/1
f 62/1/1 25/3/1 61/4/1
f 44/1/1 8/2/1 7/3/1
f 44/1/1 7/3/1 43/4/1
f 67/1/1 31/2/1 30/3/1
f 67/1/1 30/3/1 66/4/1
f 49/1/1 13/2/1 12/3/1
f 49/1/1 12/3/1 48/4/1
f 72/1/1 36/2/1 35/3/1
f 72/1/1 35/3/1 71/4/1
f 54/1/1 18/2/1 17/3/1
f 54/1/1 17/3/1 53/4/1
f 59/1/1 23/2/1 22/3/1
f 59/1/1 22/3/1 58/4/1
f 41/1/1 5/2/1 4/3/1
f 41/1/1 4/3/1 40/4/1
f 64/5/1 28/6/1 27/7/1
f 64/5/1 27/7/1 63/8/1
f 46/5/1 10/6/1 9/7/1
f 46/5/1 9/7/1 45/8/1
f 69/1/1 33/2/1 32/3/1
f 69/1/1 32/3/1 68/4/1
f 51/1/1 15/2/1 14/3/1
f 51/1/1 14/3/1 50/4/1
f 56/1/1 20/2/1 19/3/1
f 56/1/1 19/3/1 55/4/1
f 1/3/1 37/4/1 38/1/1
f 1/3/1 38/1/1 2/2/1
f 61/1/1 25/2/1 24/3/1
f 61/1/1 24/3/1 60/4/1
f 43/1/1 7/2/1 6/3/1
f 43/1/1 6/3/1 42/4/1
f 66/1/1 30/2/1 29/3/1
f 66/1/1 29/3/1 65/4/1
f 48/1/1 12/2/1 11/3/1
f 48/1/1 11/3/1 47/4/1
